<svg xmlns="http://www.w3.org/2000/svg" xmlns:xlink="http://www.w3.org/1999/xlink" width="76px" height="51px"><path fill-rule="evenodd" d="M75.047,40.669 C75.047,41.507 74.360,42.177 73.520,42.177 L70.421,42.177 C69.581,42.177 68.894,41.492 68.894,40.654 C68.894,39.816 69.581,39.131 70.421,39.131 L72.009,39.131 L72.115,18.277 L62.161,10.051 L49.856,10.051 L49.856,39.161 L52.925,39.161 C53.765,39.161 54.452,39.846 54.452,40.684 C54.452,41.522 53.765,42.208 52.925,42.208 L34.284,42.208 C33.445,42.208 32.758,41.522 32.758,40.684 C32.758,39.846 33.445,39.161 34.284,39.161 L46.803,39.161 L46.803,3.044 L10.957,3.044 L10.957,12.671 C10.957,13.509 10.270,14.194 9.430,14.194 C8.591,14.194 7.904,13.509 7.904,12.671 L7.904,1.520 C7.904,0.683 8.591,-0.003 9.430,-0.003 L48.315,-0.003 C49.154,-0.003 49.841,0.683 49.841,1.520 L49.841,7.004 L62.696,7.004 C63.062,7.004 63.398,7.126 63.673,7.355 L74.604,16.388 C74.955,16.677 75.153,17.119 75.169,17.576 L75.047,40.669 ZM26.453,15.398 C27.292,15.398 27.979,16.083 27.979,16.921 C27.979,17.759 27.292,18.444 26.453,18.444 L7.934,18.444 C7.094,18.444 6.407,17.759 6.407,16.921 C6.407,16.083 7.094,15.398 7.934,15.398 L26.453,15.398 ZM24.880,23.959 C24.865,24.796 24.178,25.467 23.338,25.467 L4.820,25.360 C3.980,25.360 3.293,24.674 3.308,23.821 C3.308,22.984 3.995,22.313 4.835,22.313 C4.835,22.313 4.835,22.313 4.850,22.313 L23.369,22.420 C24.208,22.420 24.895,23.106 24.880,23.959 ZM21.766,30.859 C21.766,31.712 21.079,32.382 20.239,32.382 L1.721,32.382 C0.881,32.382 0.194,31.697 0.194,30.859 C0.194,30.021 0.881,29.336 1.721,29.336 L20.239,29.336 C21.079,29.336 21.766,30.021 21.766,30.859 ZM9.430,33.586 C10.270,33.586 10.957,34.271 10.957,35.109 L10.957,39.161 L14.026,39.161 C14.865,39.161 15.552,39.846 15.552,40.684 C15.552,41.522 14.865,42.208 14.026,42.208 L9.430,42.208 C8.591,42.208 7.904,41.522 7.904,40.684 L7.904,35.109 C7.904,34.271 8.591,33.586 9.430,33.586 ZM24.208,37.287 C27.964,37.287 31.017,40.364 31.017,44.142 C31.017,47.920 27.964,50.997 24.208,50.997 C22.376,50.997 20.651,50.281 19.323,48.986 C17.995,47.676 17.277,45.970 17.277,44.142 C17.277,42.314 18.010,40.608 19.323,39.298 C20.636,38.003 22.376,37.287 24.208,37.287 ZM24.208,47.950 C26.285,47.950 27.964,46.244 27.964,44.142 C27.964,42.040 26.285,40.334 24.208,40.334 C22.102,40.334 20.331,42.071 20.331,44.142 C20.331,46.214 22.102,47.950 24.208,47.950 ZM66.833,29.595 L54.406,29.595 C53.566,29.595 52.879,28.909 52.879,28.071 L52.879,15.580 C52.879,14.743 53.566,14.057 54.406,14.057 L62.238,14.057 C62.619,14.057 62.986,14.194 63.261,14.453 L67.856,18.581 C68.177,18.871 68.360,19.282 68.360,19.709 L68.360,28.071 C68.360,28.909 67.673,29.595 66.833,29.595 ZM65.306,20.379 L61.642,17.088 L55.933,17.088 L55.933,26.548 L65.306,26.548 L65.306,20.379 ZM61.490,37.287 C65.245,37.287 68.299,40.364 68.299,44.142 C68.299,47.920 65.245,50.997 61.490,50.997 C59.658,50.997 57.933,50.281 56.604,48.986 C55.276,47.676 54.559,45.970 54.559,44.142 C54.559,42.314 55.291,40.608 56.604,39.298 C57.917,38.003 59.658,37.287 61.490,37.287 ZM61.490,47.950 C63.566,47.950 65.245,46.244 65.245,44.142 C65.245,42.040 63.566,40.334 61.490,40.334 C59.383,40.334 57.612,42.071 57.612,44.142 C57.612,46.214 59.383,47.950 61.490,47.950 Z"></path></svg>