<?xml version="1.0" encoding="iso-8859-1"?>
<!-- Generator: Adobe Illustrator 19.0.0, SVG Export Plug-In . SVG Version: 6.00 Build 0)  -->
<svg version="1.1" id="Capa_1" xmlns="http://www.w3.org/2000/svg" xmlns:xlink="http://www.w3.org/1999/xlink" x="0px" y="0px"
	 viewBox="0 0 511.997 511.997" style="enable-background:new 0 0 511.997 511.997;" xml:space="preserve">
<g>
	<g>
		<g>
			<path d="M511.982,417.572c-7.938-134.946-107.341-218.267-127.983-234.171V158.16c3.57,1.56,7.318,2.677,11.16,3.327
				c2.84,7.572,8.513,13.743,15.819,17.21c2.886,1.198,5.98,1.812,9.104,1.808c3.591,0.012,7.14-0.762,10.4-2.267
				c1.483-0.742,2.718-1.901,3.554-3.333l59.733-102.4c1.451-2.488,1.549-5.54,0.263-8.117
				c-8.362-16.72-27.566-16.983-40.217-13.978c-22.943-13.947-50.821-17.213-76.367-8.947c-7.035-5.478-14.565-10.288-22.493-14.368
				L330.298,2.439c-0.141-0.142-0.331-0.189-0.479-0.319c-0.442-0.365-0.92-0.683-1.428-0.949c-0.476-0.289-0.98-0.529-1.504-0.716
				c-0.198-0.066-0.345-0.211-0.552-0.263c-0.349-0.04-0.699-0.057-1.05-0.05c-0.533-0.077-1.072-0.102-1.609-0.075
				c-0.583,0.048-1.16,0.158-1.719,0.33c-1.068,0.266-2.06,0.776-2.896,1.491c-0.28,0.16-0.549,0.337-0.808,0.529
				c-17.284,14.962-39.394,23.173-62.254,23.12c-22.851,0.053-44.951-8.151-62.234-23.1c-0.279-0.213-0.573-0.408-0.878-0.583
				c-0.425-0.348-0.884-0.653-1.37-0.91c-0.518-0.251-1.061-0.448-1.62-0.585c-0.478-0.14-0.968-0.235-1.464-0.286
				c-0.61-0.04-1.224-0.012-1.828,0.083c-0.318-0.004-0.636,0.01-0.953,0.043c-0.189,0.047-0.322,0.182-0.505,0.241
				c-0.547,0.193-1.073,0.444-1.568,0.747c-0.495,0.261-0.963,0.572-1.395,0.927c-0.151,0.131-0.343,0.179-0.486,0.323
				l-24.657,24.657c-7.928,4.08-15.458,8.891-22.493,14.368c-25.545-8.266-53.424-5-76.367,8.947
				c-12.651-3.005-31.855-2.742-40.217,13.978c-1.287,2.577-1.188,5.629,0.263,8.117l59.733,102.4
				c0.836,1.433,2.071,2.591,3.554,3.333c3.26,1.505,6.81,2.279,10.4,2.267c3.124,0.004,6.219-0.611,9.104-1.808
				c7.306-3.467,12.979-9.638,15.819-17.21c3.842-0.649,7.59-1.767,11.16-3.327v25.242C107.356,199.306,7.952,282.626,0.015,417.572
				c-0.154,2.574,0.866,5.079,2.775,6.813c3.933,3.575,98.091,87.554,253.208,87.554s249.275-83.979,253.208-87.554
				C511.115,422.651,512.136,420.146,511.982,417.572z M457.974,67.028c6.06-1.817,12.593-1.169,18.178,1.803l-55.162,94.567
				c-1.182,0.144-2.381-0.017-3.483-0.467c-3.342-1.978-5.846-5.11-7.04-8.806L457.974,67.028z M328.042,24.317l12.81,12.814
				c-0.383,1.304-0.971,3.15-1.862,5.767c-0.325,0.95-0.554,1.65-0.633,1.929c-7.834,27.204-18.342,44.463-32.113,52.754
				c-8.151,4.697-17.902,5.748-26.867,2.896c-5.145-1.077-9.968-3.339-14.086-6.605c0.137-0.716,0.235-1.438,0.293-2.164
				C301.681,81.18,320.309,44.644,328.042,24.317z M255.998,42.606c17.574,0.021,34.91-4.071,50.62-11.949
				c-8.969,18.256-24.999,40.846-50.619,45.849c-25.515-4.987-41.558-27.56-50.56-45.816
				C221.133,38.547,238.447,42.627,255.998,42.606z M183.955,24.317c7.733,20.327,26.361,56.863,62.457,67.39
				c0.058,0.726,0.156,1.449,0.293,2.164c-4.117,3.265-8.939,5.527-14.082,6.605c-8.966,2.852-18.718,1.801-26.871-2.896
				c-13.771-8.292-24.279-25.55-32.108-52.737c-0.083-0.296-0.313-0.996-0.638-1.946c-0.892-2.617-1.479-4.463-1.862-5.767
				L183.955,24.317z M94.644,162.864c-1.143,0.5-2.399,0.684-3.638,0.533L35.844,68.831c5.59-2.963,12.121-3.608,18.182-1.796
				l47.506,87.094C100.339,157.763,97.899,160.857,94.644,162.864z M115.653,144.372l-44.675-81.9
				c28.625-16.367,62.05-3.55,62.383-3.408h0c3.17,1.263,6.789,0.52,9.204-1.892c4.231-3.863,8.869-7.254,13.833-10.114
				c0.153,0.451,0.292,0.873,0.451,1.339l0.392,1.154c9.083,31.538,22.071,52.033,39.713,62.654
				c7.473,4.518,16.051,6.879,24.783,6.821c5.118-0.033,10.211-0.713,15.158-2.025c6.863-1.622,13.35-4.553,19.104-8.63
				c5.754,4.077,12.241,7.008,19.104,8.63c4.946,1.312,10.038,1.992,15.154,2.025c8.734,0.06,17.315-2.303,24.787-6.825
				c17.642-10.617,30.629-31.113,39.696-62.596l0.408-1.208c0.159-0.468,0.3-0.892,0.453-1.344c4.964,2.86,9.602,6.253,13.83,10.119
				c2.411,2.403,6.018,3.147,9.183,1.896c0.354-0.137,33.758-12.971,62.404,3.404l-44.671,81.896
				c-10.072-1.994-18.25-9.332-21.321-19.129c-1.491-4.471-6.325-6.887-10.796-5.396c-4.471,1.491-6.887,6.325-5.396,10.796
				c1.768,5.372,4.512,10.372,8.095,14.748v37.174c-14.281,7.421-62.907,30.711-110.933,30.711
				c-47.921,0-96.631-23.296-110.933-30.716v-37.17c3.583-4.376,6.328-9.375,8.096-14.747c0.965-2.892,0.313-6.08-1.71-8.361
				c-2.023-2.282-5.109-3.311-8.096-2.7s-5.422,2.769-6.386,5.661C133.898,135.035,125.723,142.373,115.653,144.372z
				 M255.998,494.872c-86.278,0.331-170.225-27.992-238.667-80.525c9.122-121.702,99.589-200.267,120.026-216.539
				c11.641,6.018,23.64,11.316,35.929,15.866c-25.934,24.186-42.035,57.088-45.221,92.406c-0.584,4.676,2.733,8.94,7.408,9.525
				c0.355,0.045,0.713,0.067,1.071,0.066c4.299-0.007,7.921-3.21,8.454-7.475c7.858-62.867,45.5-86.612,47.15-87.625
				c0.188-0.114,0.29-0.302,0.466-0.428c10.393,3.128,20.973,5.6,31.676,7.402c-23.679,36.394-36.371,78.84-36.558,122.259
				c0,4.713,3.82,8.533,8.533,8.533s8.533-3.82,8.533-8.533c0.341-42.998,13.85-84.859,38.708-119.945
				c4.147,0.293,8.313,0.478,12.492,0.478c4.182,0,8.352-0.185,12.504-0.479c24.91,35.059,38.421,76.938,38.696,119.945
				c0,4.713,3.82,8.533,8.533,8.533s8.533-3.82,8.533-8.533c-0.187-43.419-12.879-85.865-36.558-122.259
				c10.703-1.802,21.283-4.274,31.677-7.402c0.174,0.126,0.274,0.314,0.461,0.428c1.6,0.979,39.287,24.713,47.154,87.625
				c0.533,4.266,4.156,7.469,8.454,7.475c0.358,0,0.716-0.022,1.071-0.067c4.676-0.585,7.992-4.849,7.408-9.525
				c-3.186-35.318-19.287-68.22-45.221-92.406c12.292-4.551,24.293-9.851,35.937-15.87
				c20.436,16.228,110.896,94.603,120.018,216.543h0C426.223,466.88,342.276,495.203,255.998,494.872z"/>
			<path d="M248.144,139.714c0.17,0.525,0.431,1.015,0.771,1.45c0.293,0.49,0.636,0.949,1.025,1.367
				c0.815,0.771,1.77,1.379,2.813,1.792c1.027,0.438,2.13,0.67,3.246,0.683c2.259-0.034,4.422-0.918,6.059-2.475
				c0.341-0.429,0.683-0.854,1.021-1.367c0.34-0.435,0.601-0.925,0.771-1.45c0.245-0.485,0.418-1.003,0.513-1.537
				c0.098-0.563,0.155-1.133,0.17-1.705c-0.033-2.259-0.917-4.422-2.475-6.059c-3.397-3.221-8.72-3.221-12.117,0
				c-1.56,1.635-2.444,3.799-2.475,6.059c0.013,0.572,0.071,1.141,0.171,1.704C247.727,138.712,247.898,139.23,248.144,139.714z"/>
			<path d="M249.94,164.483c-1.559,1.635-2.443,3.799-2.475,6.059c0.014,0.572,0.071,1.141,0.171,1.704
				c0.091,0.535,0.262,1.053,0.508,1.538c0.17,0.525,0.431,1.015,0.771,1.45c0.293,0.49,0.636,0.948,1.025,1.367
				c0.815,0.771,1.77,1.379,2.813,1.792c1.027,0.438,2.13,0.67,3.246,0.683c2.259-0.034,4.422-0.918,6.059-2.475
				c0.341-0.429,0.683-0.854,1.021-1.367c0.34-0.435,0.601-0.925,0.771-1.45c0.245-0.485,0.418-1.003,0.512-1.538
				c0.098-0.563,0.155-1.133,0.171-1.704c-0.033-2.259-0.917-4.422-2.475-6.059C258.66,161.262,253.337,161.262,249.94,164.483z"/>
		</g>
	</g>
</g>
<g>
</g>
<g>
</g>
<g>
</g>
<g>
</g>
<g>
</g>
<g>
</g>
<g>
</g>
<g>
</g>
<g>
</g>
<g>
</g>
<g>
</g>
<g>
</g>
<g>
</g>
<g>
</g>
<g>
</g>
</svg>
