<svg xmlns="http://www.w3.org/2000/svg" xmlns:xlink="http://www.w3.org/1999/xlink" width="99pt" height="99pt" viewBox="0 0 99 99">
<path d="M49.500,76.183 C34.786,76.183 22.816,64.213 22.816,49.500 C22.816,34.786 34.786,22.816 49.500,22.816 C64.213,22.816 76.184,34.786 76.184,49.500 C76.184,64.213 64.213,76.183 49.500,76.183 ZM49.500,30.550 C39.051,30.550 30.551,39.051 30.551,49.500 C30.551,59.948 39.051,68.448 49.500,68.448 C59.949,68.448 68.449,59.948 68.449,49.500 C68.449,39.051 59.949,30.550 49.500,30.550 ZM76.570,18.562 C78.706,18.562 80.437,20.294 80.437,22.429 C80.437,24.565 78.706,26.296 76.570,26.296 C74.434,26.296 72.703,24.565 72.703,22.429 C72.703,20.294 74.434,18.562 76.570,18.562 ZM95.133,70.189 C92.997,70.189 91.266,68.457 91.266,66.322 L91.266,28.758 C91.266,17.165 81.834,7.734 70.242,7.734 L28.758,7.734 C17.165,7.734 7.734,17.165 7.734,28.758 L7.734,70.242 C7.734,81.834 17.165,91.265 28.758,91.265 L70.242,91.265 C76.877,91.265 82.987,88.228 87.004,82.934 C88.295,81.232 90.721,80.899 92.422,82.190 C94.123,83.481 94.456,85.907 93.165,87.608 C90.540,91.069 87.111,93.935 83.247,95.896 C79.193,97.956 74.817,99.000 70.242,99.000 L28.758,99.000 C12.901,99.000 -0.000,86.099 -0.000,70.241 L-0.000,28.758 C-0.000,12.900 12.901,-0.000 28.758,-0.000 L70.242,-0.000 C86.099,-0.000 99.000,12.900 99.000,28.758 L99.000,66.322 C99.000,68.457 97.269,70.189 95.133,70.189 Z"/>
</svg>