<svg xmlns="http://www.w3.org/2000/svg" width="293" height="331" viewBox="0 0 293 331"><g><path d="m193.82354,2.21539c2.61,-1.34 5.55,-2.87 8.55,-1.92c6.57,0.86 8.54,10.88 3.11,14.49c-5.55,3.32 -11.55,5.81 -17.25,8.85c-2.98,1.72 -6.78,2.53 -8.74,5.59c13.33,3.2 26.62,7.14 38.6,13.98c19.3,10.78 36.48,25.73 48.83,44.16c10.58,15.08 17.84,32.27 22.61,50.01c4.14,18.31 4.91,37.51 1.18,55.96c-3.28,15.25 -8.16,30.23 -15.35,44.11c-5.07,8.73 -10.97,16.95 -17.31,24.8c-11.4,12.57 -24.49,23.81 -39.52,31.81c-3.09,1.74 -6.68,3.82 -10.3,2.27c-6.15,-1.79 -8.49,-10.28 -4.43,-15.11c3.4,-3.9 8.47,-5.61 12.71,-8.38c10.23,-6.82 19.56,-14.98 27.66,-24.23c21.9,-26.21 32.5,-61.54 28.57,-95.47c-4.83,-36.91 -27.33,-71.12 -59.35,-90.11c-6.14,-3.95 -12.68,-7.37 -19.64,-9.59c-7.9,-2.58 -15.84,-5.25 -24.13,-6.24c5.64,10.85 13.17,20.62 19.29,31.21c1.11,2.16 0.68,4.66 0.72,7c-2.74,2.17 -5.61,4.77 -9.33,4.77c-3.1,-0.54 -5.02,-3.31 -6.63,-5.76c-7.45,-11.86 -15.11,-23.59 -22.55,-35.45c-2.71,-4.52 -6.15,-8.62 -8.37,-13.41c-1.21,-2.27 -0.2,-4.69 0.67,-6.87c6.32,-4.26 13.41,-7.16 20.09,-10.79c9.96,-5.5 20.26,-10.36 30.31,-15.68z"></path><path d="m71.46354,40.85539c3.36,-1.89 6.6,-4.14 10.35,-5.16c5.48,-0.16 9.29,4.54 10.56,9.42c-0.67,4.49 -3.44,8.2 -7.53,10.14c-13.57,7.46 -25.79,17.24 -36.17,28.71c-6.98,8.66 -13.29,17.94 -17.99,28.06c-5.68,12.24 -8.86,25.48 -10.86,38.77c-4.09,33.22 7.66,67.21 28.84,92.75c4.2,4.53 8.65,8.84 13.07,13.17c13.87,12.09 30.65,20.78 48.38,25.62c2.06,0.6 4.2,0.86 6.34,1.1c-1.96,-4.93 -5.37,-9.06 -8.14,-13.54c-3.32,-5.31 -6.85,-10.49 -10.23,-15.77c-1.74,-2.53 -2.5,-6.03 -1.06,-8.85c1.86,-2.06 4.36,-3.54 7.02,-4.29c3.04,-0.38 5.93,1.43 7.41,4.02c9.48,14.79 18.95,29.58 28.44,44.36c1.58,2.86 4.03,5.48 4.16,8.91c-0.2,2.86 -2.37,5.16 -4.84,6.39c-17.01,8.5 -33.73,17.55 -50.77,25.99c-3,1.96 -7.22,0.16 -8.53,-2.99c-0.91,-2.29 -2.01,-4.71 -1.8,-7.21c0.57,-3.25 3.91,-4.49 6.43,-5.93c6.58,-3.3 13.05,-6.82 19.55,-10.27c1.36,-0.47 1.89,-1.77 2.36,-3.01c-31.22,-7.98 -59.36,-27.14 -78.41,-53.11c-10.1,-12.94 -16.65,-28.16 -22.07,-43.54c-5.66,-20.52 -7.94,-42.24 -4,-63.31c4.52,-30.68 20.13,-59.29 42.55,-80.58c8.49,-7.23 17.15,-14.41 26.94,-19.85z"></path></g></svg>