<svg xmlns="http://www.w3.org/2000/svg" xmlns:xlink="http://www.w3.org/1999/xlink" width="32px" height="32px"><path fill-rule="evenodd" d="M16.000,-0.000 C7.164,-0.000 -0.000,7.164 -0.000,16.000 C-0.000,24.836 7.164,32.000 16.000,32.000 C24.836,32.000 32.000,24.836 32.000,16.000 C32.000,7.164 24.836,-0.000 16.000,-0.000 ZM16.000,30.000 C8.280,30.000 2.000,23.719 2.000,16.000 C2.000,8.280 8.280,2.000 16.000,2.000 C23.719,2.000 30.000,8.280 30.000,16.000 C30.000,23.719 23.719,30.000 16.000,30.000 ZM12.814,10.776 L12.348,10.446 L12.332,10.433 L12.302,10.422 L11.962,10.260 L11.972,10.284 C11.650,10.152 11.313,10.058 10.944,10.058 C9.316,10.058 7.998,11.428 7.998,13.118 C7.998,14.807 9.318,16.178 10.944,16.178 C11.466,16.178 11.948,16.026 12.374,15.778 C12.228,17.414 11.404,19.801 8.384,22.232 C7.962,22.574 7.884,23.207 8.212,23.644 C8.404,23.900 8.690,24.035 8.978,24.035 C9.186,24.035 9.394,23.965 9.572,23.822 C13.278,20.832 14.204,17.760 14.328,15.708 C14.540,13.084 13.744,11.704 13.016,10.984 L12.814,10.776 ZM22.510,10.776 L22.043,10.446 L22.027,10.433 L21.998,10.422 L21.658,10.260 L21.668,10.284 C21.346,10.152 21.006,10.058 20.641,10.058 C19.012,10.058 17.695,11.428 17.695,13.118 C17.695,14.807 19.012,16.178 20.641,16.178 C21.162,16.178 21.645,16.026 22.070,15.778 C21.924,17.414 21.100,19.801 18.080,22.232 C17.656,22.574 17.580,23.207 17.908,23.644 C18.100,23.900 18.387,24.035 18.674,24.035 C18.883,24.035 19.090,23.965 19.268,23.822 C22.973,20.832 23.900,17.760 24.023,15.708 C24.236,13.084 23.438,11.704 22.711,10.984 L22.510,10.776 Z"></path></svg>