<svg xmlns="http://www.w3.org/2000/svg" xmlns:xlink="http://www.w3.org/1999/xlink" width="61px" height="52px"><path fill-rule="evenodd" d="M9.489,37.142 C8.454,37.142 7.614,36.310 7.614,35.285 C7.614,34.259 8.454,33.427 9.489,33.427 L16.988,33.427 C18.023,33.427 18.863,34.259 18.863,35.285 C18.863,36.310 18.023,37.142 16.988,37.142 L9.489,37.142 ZM56.357,52.000 L3.865,52.000 C1.795,52.000 0.116,50.336 0.116,48.286 L0.116,14.855 C0.116,12.805 1.795,11.141 3.865,11.141 L24.487,11.141 C25.522,11.141 26.362,11.973 26.362,12.998 C26.362,14.023 25.522,14.855 24.487,14.855 L3.865,14.855 L3.865,22.284 L24.487,22.284 C25.522,22.284 26.362,23.116 26.362,24.141 C26.362,25.166 25.522,25.998 24.487,25.998 L3.865,25.998 L3.865,48.286 L56.357,48.286 L56.357,35.285 C56.357,34.259 57.197,33.427 58.232,33.427 C59.267,33.427 60.107,34.259 60.107,35.285 L60.107,48.286 C60.107,50.336 58.427,52.000 56.357,52.000 ZM46.043,36.897 C45.754,37.060 45.431,37.142 45.109,37.142 C44.787,37.142 44.464,37.060 44.175,36.897 C33.924,31.046 30.111,25.074 30.111,14.855 L30.111,7.426 C30.111,6.683 30.557,6.011 31.243,5.718 L44.367,0.146 C44.843,-0.051 45.371,-0.051 45.848,0.146 L58.971,5.718 C59.661,6.011 60.107,6.683 60.107,7.426 L60.107,14.855 C60.107,25.089 56.294,31.061 46.043,36.897 ZM56.357,8.652 L45.109,3.875 L33.861,8.652 L33.861,14.855 C33.861,23.421 36.725,28.142 45.109,33.130 C53.493,28.153 56.357,23.432 56.357,14.855 L56.357,8.652 ZM43.234,24.141 C43.212,24.141 43.182,24.141 43.156,24.141 C42.556,24.112 42.008,23.807 41.675,23.313 L37.925,17.741 C37.351,16.891 37.588,15.736 38.446,15.167 C39.297,14.603 40.463,14.829 41.045,15.683 L43.377,19.138 L49.271,11.835 C49.923,11.037 51.101,10.914 51.907,11.546 C52.717,12.188 52.844,13.354 52.199,14.157 L44.700,23.443 C44.340,23.889 43.800,24.141 43.234,24.141 Z"></path></svg>