<svg xmlns="http://www.w3.org/2000/svg" xmlns:xlink="http://www.w3.org/1999/xlink" width="60px" height="59px"><path fill-rule="evenodd" d="M58.908,12.533 L56.107,19.758 C55.892,20.305 55.515,20.743 54.976,20.962 C54.492,21.181 53.953,21.181 53.469,20.962 L46.360,18.116 C45.337,17.733 44.852,16.583 45.229,15.544 C45.606,14.504 46.737,14.011 47.760,14.394 L50.022,15.270 C48.191,12.478 45.875,10.125 43.183,8.264 C39.144,5.528 34.297,3.940 29.181,3.940 C22.234,3.940 15.933,6.841 11.409,11.439 C6.832,16.091 4.032,22.440 4.032,29.500 C4.032,30.649 3.116,31.525 2.039,31.525 C0.962,31.525 0.046,30.595 0.046,29.500 C0.046,21.345 3.331,13.956 8.663,8.647 C13.887,3.284 21.157,-0.000 29.181,-0.000 C35.105,-0.000 40.705,1.806 45.391,5.035 C48.891,7.389 51.853,10.508 54.061,14.230 L55.246,11.110 C55.623,10.070 56.754,9.578 57.777,9.961 C58.800,10.344 59.285,11.493 58.908,12.533 ZM32.627,36.889 C33.597,37.107 34.405,35.903 34.835,35.411 C36.613,33.441 36.666,32.838 38.390,33.769 L43.506,36.560 C45.498,37.764 42.859,41.705 40.867,42.799 C32.035,47.725 16.095,32.838 14.856,23.644 C14.317,19.867 20.295,11.876 22.503,16.912 L24.819,22.111 C25.842,25.012 22.557,25.723 22.611,27.365 C22.611,28.350 25.088,31.416 25.680,32.072 C26.865,33.386 30.635,36.396 32.627,36.889 ZM2.901,39.242 C3.116,38.695 3.493,38.257 4.032,38.038 C4.516,37.819 5.055,37.819 5.539,38.038 L12.648,40.884 C13.671,41.267 14.156,42.416 13.779,43.456 C13.402,44.496 12.271,44.989 11.248,44.606 L8.986,43.730 C10.817,46.521 13.133,48.875 15.825,50.735 C19.864,53.472 24.711,55.059 29.827,55.059 C36.774,55.059 43.075,52.159 47.598,47.561 C52.176,42.909 54.976,36.560 54.976,29.500 C54.976,28.350 55.892,27.475 56.969,27.475 C58.046,27.475 58.961,28.405 58.961,29.500 C58.961,37.655 55.730,44.989 50.453,50.352 C45.229,55.716 37.959,59.000 29.935,59.000 C24.011,59.000 18.410,57.194 13.725,53.965 C10.225,51.611 7.263,48.492 5.055,44.770 L3.870,47.890 C3.493,48.929 2.362,49.422 1.339,49.039 C0.316,48.656 -0.169,47.506 0.208,46.467 L2.901,39.242 Z"></path></svg>