<svg height="222pt" viewBox="0 0 229 222" width="229pt" xmlns="http://www.w3.org/2000/svg"><path d="m3.53 1.57c5.73-1.24 11.66-.45 17.47-.64 7.26.2 14.58-.5 21.8.44 7.03.99 11.89 7.22 14.02 13.58 4.58 14.06 8.11 28.45 12.81 42.47 4.79.32 9.58.35 14.37.27 45.03-.02 90.05.03 135.07-.02 3.68-.25 6.99 1.49 9.93 3.5v5.79c-3.54 7.07-5.21 14.86-8.09 22.19-8.68 25.64-17.5 51.23-26.11 76.89-.96 2.92-3.36 6.05-6.79 5.66-32.02 0-64.04-.07-96.06.03-2.26 0-5.06-.05-6.35-2.26-1.96-3.42-2.67-7.38-3.76-11.13-12.15-45.1-24.55-90.13-36.79-135.21-1.08-3.25-1.79-7.44-5.09-9.18-6.23-1.2-12.65-.29-18.96-.54-5.8-.24-11.82.78-17.45-.98-1.52-1.26-2.42-3.07-3.55-4.66v-1.45c1.03-1.67 1.94-3.52 3.53-4.75m69.94 69.11c.08 1.4.23 2.8.45 4.18 4.35 16.24 8.81 32.47 12.74 48.82 2.94 11.62 6.41 23.11 9 34.82 29.26.21 58.54.25 87.81-.02 1.77-5.91 3.42-11.86 5.52-17.66 7.31-22.01 14.69-44 22.09-65.98.59-1.35.53-2.83.31-4.25-45.98.13-91.95-.07-137.92.09z"/><path d="m91.96 191.98c6.76-6.15 18.11-6.06 24.59.46 5.74 5.45 6.91 15.08 2.44 21.66-2.17 3.72-6.02 5.9-9.68 7.9h-10.74c-4.34-2.22-8.6-5.23-10.68-9.8-2.98-6.67-1.55-15.35 4.07-20.22z"/><path d="m151.84 199.48c2.46-8.34 12.03-13.69 20.44-11.67 8.61 1.59 15.4 10.4 13.73 19.23-.16 7.05-6.13 11.69-11.66 14.96h-10.82c-3.44-1.88-7.08-3.81-9.39-7.1-3.23-4.38-3.57-10.29-2.3-15.42z"/></svg>