<svg xmlns="http://www.w3.org/2000/svg" width="77.333" height="85.333" viewBox="0 0 58 64"><path opacity=".97" d="M9.05 8.1c8.84-8.66 23.4-10.44 34.11-4.27 8.97 4.87 14.63 14.74 14.81 24.9l-2.15.02c-.26-8.37-4.28-16.6-11.21-21.43-7.22-5.28-17.17-6.5-25.46-3.15C11.12 7.3 4.81 14.53 2.97 22.96c-2.09 8.77.87 18.47 7.4 24.67 4.66 4.63 11.07 7.11 17.55 7.64l.02-6.65c2.21 2.56 5.43 4.42 7 7.41-1.23 3.2-5.15 4.66-6.39 7.97h-.37l-.3-6.64c-10.46-.48-20.47-6.81-24.92-16.35C-2.44 30.24.18 16.24 9.05 8.1m20.98 45.67l.07 4.99 2.47-2.51-2.54-2.48z"/><path opacity=".97" d="M13.55 13.43h30.9v30.63h-30.9V13.43m2.16 2.1v26.41h26.58V15.53l-8.1-.02.01 6.11c-3.47.04-6.93.03-10.4-.01l.01-6.1-8.1.02m10.22-.01l.14 4.06 5.89-.02.1-4.04h-6.13zm-.72 19.63c1.09-1.4 2.3-2.7 3.5-4 1.29 1.44 2.58 2.91 3.58 4.57l-2.61.83.16 3.41-2.29.07.2-3.5-2.54-1.38zm8.31.19l3.7-4.14 3.75 4.16-2.74 1.2.13 3.46-2.24-.04.1-3.31-2.7-1.33z"/></svg>