<svg height="59pt" viewBox="0 0 59 59" width="59pt" xmlns="http://www.w3.org/2000/svg"><path d="m9.23 0h40.42c3.38 4.13 5.94 8.86 9.35 12.96v46.04h-59v-46.88l.17.93c3.01-4.36 5.97-8.75 9.06-13.05m.98 2.11c-2.43 3.41-4.8 6.87-7.17 10.31 5.65-.01 11.31 0 16.96 0 0-3.43 0-6.87-.01-10.3-3.26.01-6.52.02-9.78-.01m11.76.02c-.01 3.43-.01 6.86.01 10.29h15.04c.02-3.43.02-6.86.01-10.29-5.02 0-10.04 0-15.06 0m17.04-.01c-.01 3.43-.01 6.87-.01 10.3 5.65 0 11.31-.01 16.96 0-2.37-3.44-4.75-6.89-7.17-10.31-3.26.03-6.52.02-9.78.01m-36.87 12.26c-.02 14.16-.01 28.33-.01 42.49 18.27 0 36.53 0 54.8.01 0-14.17.02-28.34-.01-42.51-5.95.01-11.9.07-17.84-.04-.13 4.09-.07 8.18-.07 12.27-1.3-.85-2.6-1.68-3.92-2.5-.93.62-1.86 1.24-2.8 1.85-1.75-2.13-3.74-1.94-5.58-.02-.95-.61-1.88-1.23-2.82-1.85-1.3.83-2.6 1.67-3.9 2.52 0-4.09.05-8.18-.06-12.26-5.93.1-11.86.03-17.79.04m19.94-.06c-.14 2.85-.13 5.71-.12 8.56.49-.3 1.48-.9 1.97-1.2.89.63 1.79 1.25 2.68 1.87 1.01-.63 2.01-1.25 3.02-1.87.68.47 2.03 1.42 2.7 1.89.95-.63 1.89-1.26 2.83-1.89.47.3 1.4.9 1.87 1.2.02-2.85.02-5.7-.09-8.54-4.95.07-9.91.09-14.86-.02z" opacity=".97"/><path d="m37.09 48.12c-1.56-2.19 1.83-3.33 2.81-4.88 1.22 1.2 2.44 2.41 3.66 3.6l-.88.8c-.45.02-1.35.07-1.81.09.03 1.82.03 3.64.05 5.45-.66 0-1.33 0-1.99.01 0-1.95.01-3.9.03-5.85-.47.2-1.4.59-1.87.78z" opacity=".97"/><path d="m44.95 46.51c1.2-1.12 2.43-2.2 3.68-3.26 1.09 1.24 2.24 2.45 3.39 3.64-.78 1.1-1.72 1.24-2.82.4.19 1.96.21 3.92.2 5.89l-1.98.04c-.02-1.98 0-3.96.14-5.93-.38.23-1.15.7-1.53.93-.27-.43-.81-1.28-1.08-1.71z" opacity=".97"/></svg>