<svg xmlns="http://www.w3.org/2000/svg" width="66.667" height="78.667" viewBox="0 0 50 59"><path opacity=".87" d="M11.36 0h27.28c.32 3.42 1.31 7.02 4.15 9.22 1.92 1.88 4.72 2 7.21 2.47v.27c.08 6.69.02 13.5-1.96 19.95-3.3 11.8-12.02 21.82-23.04 27.08C17.63 55.47 11.22 49.91 6.84 43 .75 33.8-.44 22.46.01 11.7c2.72-.53 5.76-.84 7.77-2.98 2.55-2.16 3.14-5.59 3.58-8.72m1.9 2.03c-.6 5.84-5.21 10.93-11.16 11.5-.08 3.7-.07 7.41.29 11.09l11.33.07c.79-5.31 4.86-9.81 10.28-10.56l-.01-12.06c-3.58 0-7.15.02-10.73-.04m12.75.1l-.01 12c5.42.75 9.49 5.25 10.29 10.57 3.77-.09 7.54-.06 11.31-.07.38-3.69.39-7.41.28-11.12-5.94-.53-10.48-5.62-11.14-11.41-3.58.07-7.16.05-10.73.03M22.54 16.7c-7.25 1.79-8.96 12.55-2.74 16.6 5.48 4.53 14.5-.38 14.23-7.3.58-5.91-5.79-11.23-11.49-9.3M2.79 26.73c2.06 12.38 10.14 23.51 21.2 29.41l.01-18.9c-5.38-.79-9.52-5.19-10.26-10.53-3.65.01-7.3-.01-10.95.02m33.48-.02c-.75 5.34-4.89 9.74-10.27 10.53l.01 18.9c11.07-5.89 19.13-17.03 21.21-29.4l-10.95-.03zM23 27.76c2.47-1.97 4.42-4.51 6.69-6.7l1.35 1.34c-2.38 3.11-5.41 5.65-8.05 8.54-1.48-1.53-2.96-3.05-4.33-4.67 1.81-2.01 2.97.69 4.34 1.49z"/></svg>